<svg xmlns="http://www.w3.org/2000/svg" width="22.407" height="25.618" viewBox="0 0 22.407 25.618">
  <g id="Group_25730" data-name="Group 25730" transform="translate(-46.703 0)">
    <g id="Group_25731" data-name="Group 25731" transform="translate(47)">
      <path id="Path_12999" data-name="Path 12999" d="M23.931,209.175H22.746l-1.375-.263a13.68,13.68,0,0,1-6.15-3.855,12.573,12.573,0,0,1-3.5-6.379c-.024-.143-.035-.28-.046-.4a2.156,2.156,0,0,0-.044-.334l-.04-.141.007-.146c0-.055,0-.127,0-.2a3.9,3.9,0,0,1,0-.394,6.1,6.1,0,0,1,2.3-4.414,2.508,2.508,0,0,1,1.531-.658,1.928,1.928,0,0,1,1.185.436,22.6,22.6,0,0,1,2.352,2.351,1.923,1.923,0,0,1,.212,2.235,8.044,8.044,0,0,1-.8,1.126c-.16.2-.314.39-.442.572.031.083.073.179.1.23l.011.026a9.946,9.946,0,0,0,3.792,3.8c.057.026.175.081.27.116.181-.121.4-.3.608-.48A5.576,5.576,0,0,1,24,201.517a1.936,1.936,0,0,1,.773-.17,2.056,2.056,0,0,1,1.313.536c.223.184.835.783,1.3,1.253,1.1,1.117,1.185,1.311,1.25,1.452a2.093,2.093,0,0,1-.455,2.28,6.226,6.226,0,0,1-4.206,2.3Zm-1.015-1.8h.936a4.415,4.415,0,0,0,2.9-1.607,1.934,1.934,0,0,0,.257-.39v0c-.3-.381-1.77-1.857-2.069-2.1a.9.9,0,0,0-.174-.121.377.377,0,0,0-.048.018,4.635,4.635,0,0,0-.839.616,6.155,6.155,0,0,1-1.1.8,1.269,1.269,0,0,1-.58.133,2.69,2.69,0,0,1-1.106-.311A11.654,11.654,0,0,1,16.4,199.69l-.011-.024a1.971,1.971,0,0,1-.179-1.581l.024-.055.031-.052a9.254,9.254,0,0,1,.714-.97,6.69,6.69,0,0,0,.631-.867c.049-.09.061-.111-.046-.246a21.615,21.615,0,0,0-2.039-2.043.5.5,0,0,0-.094-.06,1.751,1.751,0,0,0-.423.277,4.3,4.3,0,0,0-1.61,3.116c0,.057,0,.135,0,.217,0,.063,0,.131,0,.2a4.156,4.156,0,0,1,.068.52c.008.1.016.188.028.261a10.937,10.937,0,0,0,3.019,5.427,11.879,11.879,0,0,0,5.269,3.348Z" transform="translate(-11.895 -183.558)" fill="#787878"/>
      <path id="Path_13000" data-name="Path 13000" d="M212.838,94.62H202.125c.292-1.835.506-3.69.828-5.52.253-1.435.706-2.859,2.427-2.98,1.4-.1,2.924.073,4.339.008a2.635,2.635,0,0,1,2.139,2.157Zm-4.44-5.166V87.692a1.561,1.561,0,0,0-.287-.485.968.968,0,0,0-1.352.1,1.367,1.367,0,0,0-.194.337v1.811H204.8a2.715,2.715,0,0,0-.33.153.922.922,0,0,0-.246,1.293c.081.12.391.389.528.389h1.737l.072.072V93.1c0,.137.27.447.389.528a.921.921,0,0,0,1.292-.246,2.726,2.726,0,0,0,.152-.33V91.289h1.81a1.329,1.329,0,0,0,.528-.389.956.956,0,0,0-.247-1.293,2.692,2.692,0,0,0-.33-.153Z" transform="translate(-192.347 -81.925)" fill="#787878"/>
      <path id="Path_13001" data-name="Path 13001" d="M169.535,276.439l11.375-.013a1.33,1.33,0,0,1,.145,2.654l-11.626,0a1.327,1.327,0,0,1,.106-2.638" transform="translate(-160.154 -263.054)" fill="#787878"/>
      <path id="Path_13002" data-name="Path 13002" d="M254.159,13.809c-.126-.324-.882-1.323-.868-1.6a.341.341,0,0,1,.606-.194l.818,1.453c.07.354-.277.5-.557.336" transform="translate(-241.038 -11.315)" fill="#787878"/>
      <path id="Path_13003" data-name="Path 13003" d="M307.8.007a.347.347,0,0,1,.374.186,12.488,12.488,0,0,1,.022,1.71.331.331,0,0,1-.636.063,9.382,9.382,0,0,1-.034-1.65A.375.375,0,0,1,307.8.007" transform="translate(-292.627 -0.001)" fill="#787878"/>
      <path id="Path_13004" data-name="Path 13004" d="M212.622,49.9a.31.31,0,0,1,.192.03,9.63,9.63,0,0,1,1.265.715c.391.3.133.728-.252.639-.072-.017-1.2-.668-1.286-.742-.259-.214-.255-.582.081-.641" transform="translate(-202.084 -47.481)" fill="#787878"/>
      <path id="Path_13005" data-name="Path 13005" d="M347.9,16.921a.34.34,0,0,1,.416.415,11.438,11.438,0,0,1-.741,1.291c-.292.335-.692.08-.608-.266a11.949,11.949,0,0,1,.74-1.292c.059-.072.09-.127.192-.148" transform="translate(-330.17 -16.094)" fill="#787878"/>
      <path id="Path_13006" data-name="Path 13006" d="M379.373,58.133a.386.386,0,0,1-.116.559,10.058,10.058,0,0,1-1.124.617c-.346.071-.573-.363-.172-.659A9.961,9.961,0,0,1,379,58.044a.456.456,0,0,1,.375.089" transform="translate(-359.474 -55.226)" fill="#787878"/>
    </g>
  </g>
</svg>
