<?xml version="1.0" encoding="utf-8"?>
<!-- Generator: Adobe Illustrator 16.0.0, SVG Export Plug-In . SVG Version: 6.00 Build 0)  -->
<!DOCTYPE svg PUBLIC "-//W3C//DTD SVG 1.1//EN" "http://www.w3.org/Graphics/SVG/1.1/DTD/svg11.dtd">
<svg version="1.1" id="Layer_1" xmlns="http://www.w3.org/2000/svg" xmlns:xlink="http://www.w3.org/1999/xlink" x="0px" y="0px"
	 width="50px" height="50px" viewBox="0 0 50 50" enable-background="new 0 0 50 50" xml:space="preserve">
     <style>
svg {
	shape-rendering: geometricPrecision;
}

.clear_sky {fill: #F6C41D;}
.clear_sky path {fill: #F6C41D;}
.clear_sky line {stroke: #F6C41D;}
     </style>


<g class="clear_sky">
	<path d="M38.998,20.625h-7.916c-0.553,0-1,0.447-1,1s0.447,1,1,1h7.916c0.553,0,1-0.447,1-1S39.551,20.625,38.998,20.625z"/>
	<path d="M9.916,21.625c0-0.553-0.447-1-1-1H1c-0.553,0-1,0.447-1,1s0.447,1,1,1h7.916C9.469,22.625,9.916,22.178,9.916,21.625z"/>
	<path d="M19.999,11.542c0.553,0,1-0.447,1-1V2.626c0-0.553-0.447-1-1-1s-1,0.447-1,1v7.916
		C18.999,11.095,19.446,11.542,19.999,11.542z"/>
	<path d="M19.999,31.708c-0.553,0-1,0.446-1,1v7.916c0,0.554,0.447,1,1,1s1-0.446,1-1v-7.916
		C20.999,32.154,20.552,31.708,19.999,31.708z"/>
	<path d="M29.662,29.875c-0.391-0.391-1.023-0.391-1.414,0s-0.391,1.023,0,1.414l4.479,4.479c0.194,0.194,0.451,0.293,0.707,0.293
		s0.512-0.099,0.707-0.293c0.392-0.392,0.392-1.022,0-1.414L29.662,29.875z"/>
	<path d="M7.271,7.483c-0.391-0.391-1.023-0.391-1.414,0s-0.391,1.023,0,1.414l4.479,4.479c0.195,0.195,0.451,0.293,0.707,0.293
		s0.512-0.098,0.707-0.293c0.391-0.391,0.391-1.023,0-1.414L7.271,7.483z"/>
	<path d="M28.955,13.669c0.256,0,0.512-0.098,0.707-0.293l4.479-4.479c0.392-0.391,0.392-1.023,0-1.414s-1.022-0.391-1.414,0
		l-4.479,4.479c-0.391,0.391-0.391,1.023,0,1.414C28.443,13.571,28.699,13.669,28.955,13.669z"/>
	<path d="M10.336,29.874l-4.479,4.478c-0.391,0.393-0.391,1.023,0,1.414c0.195,0.195,0.451,0.293,0.707,0.293
		s0.512-0.098,0.707-0.293l4.479-4.478c0.391-0.392,0.391-1.022,0-1.414S10.727,29.482,10.336,29.874z"/>
	<path d="M19.999,13.709c-4.37,0-7.916,3.546-7.916,7.916s3.546,7.916,7.916,7.916s7.916-3.546,7.916-7.916
		S24.369,13.709,19.999,13.709z M19.999,27.959c-3.491,0-6.332-2.842-6.332-6.334s2.841-6.333,6.332-6.333s6.332,2.841,6.332,6.333
		S23.49,27.959,19.999,27.959z"/>

	<animateTransform attributeName="transform" begin="0s" dur="8s" type="rotate" from="0 21 21" to="360 21 21" repeatCount="indefinite" />
</g>
<path fill="#FFFFFF" d="M46.43,25.166c-0.438-0.193-0.902-0.334-1.388-0.42c-0.339-0.059-0.683-0.094-1.035-0.094
	c-0.368,0-0.729,0.037-1.079,0.102c0.008-0.15,0.021-0.301,0.021-0.454c0-4.865-3.942-8.809-8.809-8.809
	c-3.138,0-5.882,1.643-7.439,4.109c-0.99-0.377-2.045-0.586-3.131-0.586c-4.856,0-8.809,3.951-8.809,8.808s3.952,8.809,8.809,8.809
	c1.727,0,3.375-0.494,4.805-1.428c1.762,0.912,3.727,1.421,5.744,1.421c2.083,0,4.107-0.526,5.92-1.507
	c0.004,0.003,0.006,0.006,0.01,0.008c1.053,0.936,2.438,1.506,3.958,1.506c3.308,0,5.989-2.682,5.989-5.99
	C49.996,28.197,48.527,26.098,46.43,25.166z"/>
<path d="M46.43,25.166c-0.438-0.193-0.902-0.334-1.388-0.42c-0.339-0.059-0.683-0.094-1.035-0.094c-0.368,0-0.729,0.037-1.079,0.102
	c0.008-0.15,0.021-0.301,0.021-0.454c0-4.865-3.942-8.809-8.809-8.809c-3.138,0-5.882,1.643-7.439,4.109
	c-0.99-0.377-2.045-0.586-3.131-0.586c-4.856,0-8.809,3.951-8.809,8.808s3.952,8.809,8.809,8.809c1.727,0,3.375-0.494,4.805-1.428
	c1.762,0.912,3.727,1.421,5.744,1.421c2.083,0,4.107-0.526,5.92-1.507c0.004,0.003,0.006,0.006,0.01,0.008
	c1.053,0.936,2.438,1.506,3.958,1.506c3.308,0,5.989-2.682,5.989-5.99C49.996,28.197,48.527,26.098,46.43,25.166z M44.007,35.223
	c-1.015,0-1.95-0.332-2.709-0.893c-0.385-0.285-0.719-0.629-1-1.018c-0.388,0.267-0.797,0.502-1.219,0.717
	c0,0.002,0.002,0.002,0.003,0.004c-1.532,0.771-3.225,1.182-4.963,1.182c-3.09,0-6.059-1.306-8.146-3.582
	c-0.266-0.287-0.709-0.306-0.998-0.043c-0.286,0.264-0.305,0.71-0.043,0.996c0.625,0.678,1.319,1.275,2.066,1.795
	c-1.049,0.553-2.216,0.838-3.428,0.838c-4.077,0-7.397-3.316-7.397-7.396c0-4.076,3.32-7.394,7.397-7.394
	c0.85,0,1.681,0.148,2.464,0.426c0.444,0.156,0.874,0.355,1.282,0.595c0.709,0.417,1.354,0.953,1.897,1.598
	c0.257,0.297,0.698,0.334,0.995,0.082c0.298-0.252,0.335-0.697,0.084-0.995c-0.663-0.781-1.447-1.425-2.312-1.926
	c1.326-1.99,3.592-3.306,6.156-3.306c4.08,0,7.4,3.319,7.4,7.399c0,0.312-0.025,0.616-0.064,0.919
	c-0.088,0.721-0.281,1.414-0.564,2.057c0.513-0.473,1.129-0.83,1.814-1.029c0.407-0.118,0.836-0.188,1.28-0.188
	c0.304,0,0.601,0.031,0.888,0.09c0.482,0.096,0.936,0.268,1.351,0.498c1.396,0.785,2.344,2.279,2.344,3.992
	C48.587,33.167,46.532,35.223,44.007,35.223z" fill="#01415D"/>
</svg>
