<?xml version="1.0" encoding="utf-8"?>
<!-- Generator: Adobe Illustrator 16.0.0, SVG Export Plug-In . SVG Version: 6.00 Build 0)  -->
<!DOCTYPE svg PUBLIC "-//W3C//DTD SVG 1.1//EN" "http://www.w3.org/Graphics/SVG/1.1/DTD/svg11.dtd">
<svg version="1.1" id="Layer_1" xmlns="http://www.w3.org/2000/svg" xmlns:xlink="http://www.w3.org/1999/xlink" x="0px" y="0px"
	 width="50px" height="50px" viewBox="0 0 50 50" enable-background="new 0 0 50 50" xml:space="preserve">
     <style>
svg {
	shape-rendering: geometricPrecision;
}

.clear_sky {fill: #F6C41D;}
.clear_sky path {fill: #F6C41D;}
.clear_sky line {stroke: #F6C41D;}
     </style>


<g class="clear_sky">
	<path d="M44.459,23.621h-7.916c-0.553,0-1,0.447-1,1c0,0.553,0.447,1,1,1h7.916c0.553,0,1-0.447,1-1
		C45.459,24.068,45.012,23.621,44.459,23.621z"/>
	<path d="M15.376,24.621c0-0.553-0.447-1-1-1H6.46c-0.553,0-1,0.447-1,1c0,0.553,0.447,1,1,1h7.916
		C14.929,25.621,15.376,25.174,15.376,24.621z"/>
	<path d="M25.459,14.538c0.553,0,1-0.447,1-1V5.622c0-0.553-0.447-1-1-1c-0.553,0-1,0.447-1,1v7.916
		C24.459,14.091,24.906,14.538,25.459,14.538z"/>
	<path d="M25.459,34.704c-0.553,0-1,0.446-1,1v7.916c0,0.553,0.447,1,1,1c0.553,0,1-0.447,1-1v-7.916
		C26.459,35.15,26.012,34.704,25.459,34.704z"/>
	<path d="M35.123,32.871c-0.391-0.391-1.023-0.391-1.414,0s-0.391,1.023,0,1.414l4.477,4.479c0.195,0.194,0.451,0.293,0.707,0.293
		c0.258,0,0.515-0.099,0.707-0.293c0.394-0.392,0.394-1.022,0-1.414L35.123,32.871z"/>
	<path d="M12.732,10.479c-0.391-0.391-1.023-0.391-1.414,0c-0.391,0.391-0.391,1.023,0,1.414l4.479,4.479
		c0.195,0.195,0.451,0.293,0.707,0.293s0.512-0.098,0.707-0.293c0.391-0.391,0.391-1.023,0-1.414L12.732,10.479z"/>
	<path d="M34.416,16.665c0.256,0,0.512-0.098,0.707-0.293l4.477-4.479c0.394-0.391,0.394-1.023,0-1.414
		c-0.391-0.391-1.021-0.391-1.414,0l-4.477,4.479c-0.391,0.391-0.391,1.023,0,1.414C33.904,16.567,34.16,16.665,34.416,16.665z"/>
	<path d="M15.796,32.87l-4.479,4.478c-0.391,0.391-0.391,1.023,0,1.414c0.195,0.195,0.451,0.293,0.707,0.293
		s0.512-0.098,0.707-0.293l4.479-4.478c0.391-0.392,0.391-1.022,0-1.414S16.188,32.479,15.796,32.87z"/>
	<path d="M25.459,16.705c-4.37,0-7.916,3.546-7.916,7.916s3.546,7.916,7.916,7.916c4.371,0,7.916-3.546,7.916-7.916
		S29.83,16.705,25.459,16.705z M25.459,30.955c-3.491,0-6.332-2.842-6.332-6.334s2.841-6.333,6.332-6.333
		c3.492,0,6.332,2.841,6.332,6.333S28.951,30.955,25.459,30.955z"/>

	<animateTransform attributeName="transform" begin="0s" dur="8s" type="rotate" from="0 25 25" to="360 25 25" repeatCount="indefinite" />
</g>

<g>
	<path fill="#FFFFFF" d="M20.508,24.226c-0.496,0-0.969,0.099-1.399,0.276c0.063-0.342,0.135-0.709,0.135-1.069
		c0-3.135-2.541-5.676-5.676-5.676c-2.097,0-3.929,1.138-4.911,2.83l-0.027,0.18c-0.746-0.359-1.581-0.562-2.465-0.562
		c-3.146-0.001-5.697,2.55-5.697,5.695c0,3.145,2.551,5.695,5.696,5.695c1.224,0,2.357-0.387,3.285-1.041l0.001-0.008
		c1.211,0.702,2.616,1.107,4.117,1.107c1.567,0,3.031-0.438,4.277-1.196c0.671,0.715,1.606,1.144,2.663,1.144
		c2.033,0,3.681-1.65,3.681-3.688C24.189,25.876,22.541,24.226,20.508,24.226z"/>
	<path d="M20.508,23.476c-0.173,0-0.346,0.01-0.516,0.029c0.001-0.023,0.001-0.048,0.001-0.072c0-3.543-2.883-6.426-6.426-6.426
		c-2.121,0-4.102,1.069-5.292,2.806c-0.672-0.232-1.384-0.358-2.111-0.358c-3.555,0-6.446,2.892-6.446,6.445
		c0,3.555,2.892,6.447,6.446,6.447c1.183,0,2.313-0.336,3.314-0.938c1.254,0.644,2.649,1,4.089,1c1.46,0,2.89-0.354,4.17-1.025
		c0.776,0.628,1.74,0.97,2.771,0.97c2.443,0,4.431-1.99,4.431-4.438C24.939,25.468,22.951,23.476,20.508,23.476z M20.508,30.852
		c-0.817,0-1.568-0.32-2.116-0.904l-0.417-0.443l-0.521,0.316c-1.166,0.714-2.511,1.09-3.887,1.09c-2.154,0-4.204-0.932-5.625-2.553
		c-0.273-0.312-0.747-0.342-1.059-0.069s-0.343,0.747-0.07,1.06c0.366,0.418,0.773,0.791,1.203,1.129
		c-0.585,0.235-1.207,0.373-1.853,0.373c-2.728,0-4.946-2.22-4.946-4.945c0-2.728,2.219-4.946,4.946-4.946
		c1.438,0,2.803,0.624,3.743,1.712c0.271,0.314,0.744,0.35,1.058,0.077c0.313-0.271,0.348-0.744,0.077-1.058
		c-0.412-0.477-0.89-0.878-1.409-1.21c0.925-1.226,2.382-1.969,3.935-1.969c2.716,0,4.926,2.21,4.926,4.926
		c0,0.276-0.058,0.588-0.122,0.933l-0.252,1.355l1.275-0.527c0.354-0.146,0.728-0.22,1.113-0.22c1.616,0,2.931,1.318,2.931,2.938
		S22.124,30.852,20.508,30.852z"  fill="#01415D"/>

		<animateTransform attributeName="transform" begin="0s" dur="3s" type="translate" values = "-5;5;-5" keyTimes = "0;0.5;1" repeatCount="indefinite"/>
</g>

<g>
	<path fill="#FFFFFF" d="M45.834,37.281c-0.496,0-0.969,0.099-1.4,0.275c0.064-0.343,0.137-0.709,0.137-1.068
		c0-3.135-2.541-5.676-5.678-5.676c-2.096,0-3.928,1.138-4.91,2.83l-0.026,0.18c-0.746-0.359-1.58-0.562-2.465-0.562
		c-3.146,0-5.695,2.551-5.695,5.696s2.552,5.696,5.695,5.696c1.225,0,2.356-0.387,3.284-1.043l0.002-0.006
		c1.211,0.703,2.615,1.108,4.115,1.108c1.568,0,3.031-0.438,4.277-1.196c0.672,0.715,1.607,1.141,2.664,1.141
		c2.033,0,3.68-1.649,3.68-3.688C49.514,38.932,47.867,37.281,45.834,37.281z"/>
	<path d="M45.834,36.531c-0.174,0-0.346,0.01-0.516,0.029c0-0.023,0-0.049,0-0.072c0-3.543-2.883-6.426-6.426-6.426
		c-2.121,0-4.103,1.067-5.293,2.806c-0.672-0.231-1.384-0.358-2.109-0.358c-3.557,0-6.447,2.893-6.447,6.446
		c0,3.553,2.893,6.446,6.447,6.446c1.182,0,2.312-0.334,3.312-0.938c1.254,0.644,2.649,1,4.09,1c1.459,0,2.891-0.354,4.17-1.024
		c0.774,0.627,1.74,0.97,2.771,0.97c2.442,0,4.431-1.99,4.431-4.438C50.264,38.521,48.277,36.531,45.834,36.531z M45.834,43.906
		c-0.818,0-1.568-0.32-2.117-0.904l-0.416-0.443l-0.521,0.317c-1.166,0.712-2.512,1.088-3.887,1.088c-2.154,0-4.203-0.93-5.625-2.552
		c-0.272-0.312-0.748-0.342-1.059-0.07c-0.312,0.273-0.344,0.747-0.07,1.059c0.365,0.418,0.773,0.791,1.203,1.129
		c-0.586,0.236-1.209,0.373-1.854,0.373c-2.729,0-4.945-2.219-4.945-4.944s2.219-4.944,4.945-4.944c1.438,0,2.803,0.623,3.744,1.711
		c0.27,0.312,0.744,0.35,1.057,0.076c0.312-0.271,0.348-0.742,0.078-1.058c-0.412-0.478-0.891-0.88-1.41-1.212
		c0.926-1.225,2.383-1.969,3.936-1.969c2.717,0,4.926,2.211,4.926,4.926c0,0.277-0.059,0.59-0.121,0.935l-0.252,1.354l1.273-0.524
		c0.355-0.146,0.729-0.222,1.113-0.222c1.617,0,2.932,1.318,2.932,2.939C48.764,42.59,47.449,43.906,45.834,43.906z"  fill="#01415D"/>

		<animateTransform attributeName="transform" begin="0s" dur="3s" type="translate" values = "5;-5;5" keyTimes = "0;0.5;1" repeatCount="indefinite"/>
</g>
</svg>
